# xmcd
#
# Track frame offsets:
#	150
#	34886
#	63522
#	96224
#	128584
#	161728
#	192368
#	222824
#	254908
#	287269
#	320256
#
# Disc length: 4546 seconds
#
# Revision: 1
# Processed by: cddbd v1.5.2PL0 Copyright (c) Steve Scherf et al.
# Submitted via: audiograbber 1.83.01
#
DISCID=a011c00b
DTITLE=Various Artist - Fierce Disco II [CD3)
DYEAR=2008
DGENRE=House
TTITLE0=Morjac and Todd Terry ft. Sarah Tyler - Do It (Morjac Mix)
TTITLE1=Danny Dove and Steve Smart - Need In Me (Extended Mix)
TTITLE2=Patrick Hagenaar - Criminal (Original Mix)
TTITLE3=Seamus Haji vs. Doug Lazy - Head To Toe (Seamus Haji Big Love Mix)
TTITLE4=Stonebridge ft. Kenny Thomas - You Don't Know (Club Mix)
TTITLE5=Wideboys ft. Shaznay - Daddy O' (Soulseekers Dirty Vocal)
TTITLE6=Vandalism - Smash Disco (Kam Denny Remix)
TTITLE7=Out Of Office - Break Of Dawn (12" Mix)
TTITLE8=Liquid - Sweet Harmony (Dave Spoon and James Talk Mix)
TTITLE9=Brad Hed - Girls and Boys (Vandalism Vocal Mix)
TTITLE10=Super Mal - Light Years (Original Mix)
EXTD=
EXTT0=
EXTT1=
EXTT2=
EXTT3=
EXTT4=
EXTT5=
EXTT6=
EXTT7=
EXTT8=
EXTT9=
EXTT10=
PLAYORDER=
